<svg version="1.2" xmlns="http://www.w3.org/2000/svg" viewBox="0 0 688 309" width="688" height="309">
	<title>Trip5_outlined</title>
	<style>
		.s0 { fill: #000001 } 
		.s1 { opacity: 1;fill: #0054fd } 
		.s2 { fill: #00a601 } 
		.s3 { fill: #f93200 } 
		.s4 { fill: #f7f700 } 
		.s5 { fill: #a300d4 } 
	</style>
	<g id="Background">
		<path id="Path 0" fill-rule="evenodd" class="s0" d="m553 2.3c20.9 0.4 32.9 1.1 45 2.7 10.4 1.4 18.9 1.9 23 1.6 3.6-0.3 9.8-1.5 13.8-2.6 5.3-1.5 10.2-2 18.7-2 11.3 0 11.5 0 12.5 2.5 0.5 1.4 1 7.6 1 13.8q0 11.2-1.2 12.4c-0.7 0.7-2.5 1.3-4 1.3-2.8 0-2.8 0.1-2.7 12.5l-15.8 12.5c-14.4 11.5-15.9 12.9-18.4 21.5l-13.7 0.8c-7.5 0.4-16.7 0.7-20.5 0.7-5.1 0-6.8-0.4-7.2-1.5-0.4-1.2-2.6-1.5-21.5-1.5v3.2c0 1.8-0.5 3.9-1.2 4.6-1.1 1.1 2.2 1.2 18.7 0.6 18.8-0.6 20.9-0.5 34.5 2 8 1.4 14.8 2.6 15.3 2.6 0.4 0 0.7 1.6 0.7 7h6c3.3 0 7.3 0.7 9 1.5 1.6 0.8 3 1.8 3 2.2 0 0.5 1.1 1.4 2.5 2 1.4 0.7 3.4 1.3 4.5 1.3 1.1 0 2.4 0.8 2.9 1.7 0.5 1 3.4 8.5 6.5 16.8 4.3 11.5 5.6 16.3 5.5 20.5 0 5.5 0.1 5.5 4.2 7.5 2.3 1.1 5.3 3 6.5 4.2 2.1 2 2.4 3.2 2.4 9.5 0 4-0.3 13-1.5 32.8l-7.8 2.7c-7.7 2.8-7.7 2.8-7.8 6.3 0 2.5-1.2 5.1-4.4 9.5-4 5.5-4.4 6.5-5 20l-7.7 0.5c-6.1 0.4-8.1 0.9-10 2.7-2 2-4.6 2.5-20.3 4.3-15 1.8-21.4 2-38.5 1.5-17.2-0.6-23.5-1.2-39.3-4.1-18.4-3.3-18.7-3.4-18.7-5.9 0-1.7-0.9-3-3-4.2-1.8-1.1-3.8-3.7-5.1-6.8-1.2-2.7-3.5-6.2-5.3-7.6-2.4-2-3.4-4-6-15.4l-1.1 6c-0.6 3.3-2.2 8.5-3.7 11.5-1.6 3.3-5 7.7-8.5 11-3.2 3-9.4 7.4-13.8 9.6-4.4 2.3-11.8 5.4-16.5 7-7.7 2.5-10.1 2.8-26.5 3.1-15.4 0.4-19.1 0.1-25.5-1.5-4.1-1.1-7.6-1.9-7.6-1.8-0.1 0-0.5 3.4-1.4 14.6h18.5c18.4 0 18.5 0 21 2.5 2.5 2.5 2.5 2.8 2.5 18 0 13.5-0.2 15.7-1.8 17.1-0.9 0.9-2.4 2-3.2 2.4-0.8 0.4-9.4 1.6-19 2.5-14.1 1.4-22.7 1.7-70.5 0.6l-2.8-2.8c-2.7-2.8-2.7-2.9-2.7-15.8 0-7.1 0.4-14.4 1-16 0.5-1.6 1.9-3.6 3-4.2 1.1-0.7 4.7-1.6 14.1-2.8l-0.5-6c-0.3-3.3-0.8-12.5-1.1-20.5-0.4-8-1.3-26.4-2.1-41-0.8-14.6-1.4-30.9-1.4-36.3 0-7.7-0.3-9.8-1.5-10.2-0.8-0.3-2.3-0.5-3.3-0.5-0.9 0-2.9-0.7-7.2-3v8.5c0 8.4 0 8.5-4 13.2-2.3 2.8-4.2 6.3-4.5 8.3-0.3 1.9-1.9 6.9-3.6 11-1.7 4.1-4.5 10-6.4 13-1.8 3-3.8 6.7-5.5 11l15.5 0.5v14.2c0 13-0.2 14.3-2 15.7-1.1 0.9-3.6 2.1-5.5 2.7-1.9 0.6-5.3 2.9-7.5 5-2.2 2.1-5.2 4.3-6.8 4.8-1.5 0.6-7.4 1.1-13.2 1.1-7.3 0-11.3-0.4-13.3-1.5-1.5-0.8-4.4-2.1-6.5-3-2.6-1.1-4.5-2.9-6.5-6.3-2.7-4.6-2.7-5-2.7-21.8 0-14.4 0.3-17.5 1.6-19 0.9-1.1 2.6-4.2 3.8-6.9 1.2-2.8 4.8-8.3 7.9-12.4 3.1-4 6.5-8.5 7.4-10 1-1.4 1.8-3.6 1.8-4.9 0-1.2 0.9-4.8 2-8 1.1-3.1 2-6.6 2-7.7 0-1.1 1.5-5.6 3.2-9.9 2.1-5 4.5-9 9.8-13.6v-13.8c0-13 0.1-13.9 5-21.2h13.7c9.7 0 14.3 0.3 15.4 1.2 0.9 0.7 2.4 2.4 3.3 3.8 0.9 1.4 1.6 4 1.6 9h12.5c6.9 0 18 0.5 24.7 1.1 6.8 0.6 12.7 1.5 13.3 1.9 0.6 0.4 3.7-0.1 7-1.3 5.2-1.8 8.6-2 26.5-2.1 14.5-0.1 22.1 0.3 26 1.3 3 0.8 8 2.6 11 4.1 3 1.6 7.9 4.8 10.8 7.1 2.9 2.4 7 6.9 9.1 9.9 2.1 3 5.1 8 6.7 11 1.5 3 3.7 8.7 6.9 19.8l29-17.8 10.5 0.1c5.8 0.1 13 0.4 16 0.7 5.2 0.7 5.6 0.9 9 6.1 1.9 2.9 5.1 6.2 7 7.2 1.9 1.1 3.8 2.5 4.2 3.2 0.4 0.7 0.8-2.1 0.8-6 0-5.9 0.5-8.3 2.6-12.5 1.5-2.9 3.1-5.5 3.6-5.8 0.5-0.3-0.9-2.6-3.2-5.2-3.7-4.4-4.4-4.8-8.5-4.8-3.4 0-4.7 0.4-5.1 1.8-0.4 0.9-1.6 2.5-2.8 3.5-1.2 1-3.8 2.7-5.9 3.7-2 1.1-4.6 2-5.7 2-1.1 0-4.3 1.1-7 2.5-4.5 2.3-6.2 2.5-30 2.5v-6.2c0.1-4.5-0.4-6.7-1.5-7.8-1.2-1.2-1.6-3.5-1.5-10.3 0-7.1-0.3-8.7-1.5-8.7-1.2 0-1.5-1.9-1.5-11.3 0-11.2 0-11.2 3-14.2 3-3 3-3.1 3-13.3 0-6.1-0.4-10.2-1-10.2-0.6 0-0.9-4.7-0.8-12.7 0.3-12.7 0.3-12.7 2.8-13.3 2.4-0.5 2.5-1 2.7-7.8 0.2-4 0.7-7.2 1.3-7.2 0.6 0 0.9-2.8 0.8-6.8-0.1-4.9 0.2-7.2 1.2-8.1 1.2-1 7.4-1.2 30-0.8zm-139.5 153.9c-2.8 1.9-6.2 5.1-7.7 6.9-1.4 1.9-3.5 5.4-4.7 7.9-1.1 2.5-2.1 6-2.1 7.7 0 1.8 1.2 5.7 2.6 8.5 1.4 2.9 4.9 7.5 7.8 10.1 2.8 2.7 7.8 6.2 11.1 7.9 5.6 2.7 6.3 2.8 10.5 1.8 2.5-0.7 6.5-2.2 9-3.5 2.5-1.2 6.6-4.5 9.1-7.1 2.5-2.7 5.3-6.9 6.3-9.4 1.3-3.2 1.6-5.8 1.2-9-0.4-2.5-1.8-6.9-3.1-9.8-1.4-2.8-4.4-7.3-6.8-9.8-2.3-2.5-6.5-5.6-9.2-7-2.8-1.3-6.1-2.4-7.5-2.4-1.4 0.1-4.5 0.9-7 1.8-2.5 1-6.8 3.4-9.5 5.4zm172 30.3c-3.5 1.5-3.5 1.6-3.5 7.7-0.1 5.3-0.5 6.9-2.8 9.8l-2.7 3.5c4.7-2.9 7-4.7 8.2-5.9 1.2-1.2 2.5-3.9 2.8-6.1 0.4-2.2 1.2-4.7 1.9-5.5 0.8-0.9 1.5-5 1.8-9.8 0.3-6.3 0.1-8.2-0.9-8.2-0.9 0-1.3 1.8-1.3 6.5 0 6.5 0 6.5-3.5 8zm-580.7-181.5h11.3c10.7 0 11.6 0.2 15.4 2.7 2.2 1.5 6.7 3.9 10 5.4 3.3 1.5 8 3 10.5 3.3 2.5 0.3 26.1 0.9 52.5 1.2 26.4 0.3 53.6 0.5 60.5 0.4 12-0.2 12.6-0.3 16-3 1.9-1.5 5-3.5 6.8-4.4 2.4-1.2 6-1.6 14.5-1.6 6.1 0 12.7 0.4 14.5 1 2.3 0.7 3.2 1.6 3.2 3.2 0 1.3 0.7 11.3 1.5 22.3 0.8 11 1.5 24.9 1.5 31q0 11-1.2 12.2c-0.8 0.9-4.9 1.3-12.8 1.3-9.4 0.1-11.8-0.2-13-1.5-0.8-0.9-3.7-5.7-11.5-19.7l-19.8 0.1c-10.9 0-20 0.2-20.2 0.3-0.3 0.2-0.9 3.2-1.5 6.8-0.5 3.6-1.4 15.4-2 26.2-0.7 13.2-0.7 20.5 0 21.8 0.6 1.1 1 6.5 1 12 0 5.5-0.7 13.9-1.5 18.7-0.8 4.9-1.9 17.3-3.6 46.8l3.1 9c1.6 4.9 3.3 9.3 3.8 9.6 0.4 0.3 4.5 2.1 9.2 4 4.7 1.9 9.7 4.4 14 7.9v28l-28.2-0.1c-22.2-0.1-28.9-0.4-31-1.5-1.8-0.9-6-1.4-12-1.4-6.2 0.1-10.1 0.6-11.8 1.5-1.7 1-5.9 1.4-25 1.5v-35.5l5.7-1.3c3.2-0.7 7-1.2 8.6-1.2 1.5 0 3.6-0.5 4.7-1 1.1-0.6 2.9-2.5 4-4.3 1-1.7 2.6-5.5 3.5-8.2 0.8-2.8 2.2-9.3 3-14.5 1.1-6.8 1.5-18.4 1.5-40.5 0.1-17.1 0.5-35.5 1-41 0.5-5.5 1.4-13.2 2-17 0.9-5.7 0.8-8.3-0.5-13.8-0.8-3.7-2.1-7.9-4.3-12.2l-39.5 2-4.8 5.5c-3.3 3.6-5.3 7-6.9 14h-14c-13.4 0-14.1-0.1-15.4-2.3-1-1.7-1.5-10.6-2.1-38z"/>
		<path id="Path 1" fill-rule="evenodd" class="s1" d="m433 117.1c3.6 0 9.4 0.6 13 1.4 3.6 0.8 9.4 2.9 13 4.7 3.8 1.9 9 5.7 12.6 9.3 3.3 3.3 7.9 9.2 10.2 13 2.3 3.8 5.4 10.4 6.8 14.5 1.4 4.1 3.1 11.6 3.6 16.5 0.8 6.7 0.8 11.1-0.1 17-0.7 4.4-2.4 10.3-3.8 13-1.4 2.8-3.9 6.7-5.6 8.9-1.8 2.1-6.3 6-10.2 8.5-3.9 2.6-10.7 6.2-15.3 7.9-4.5 1.8-11 3.9-14.4 4.7-3.5 0.8-9 1.5-12.3 1.5-3.3 0-8.7-0.7-12-1.6-3.3-0.8-8.5-2.8-11.5-4.5-3-1.6-7.9-4.9-10.7-7.4-4.4-3.7-5.4-4.2-5.8-2.7-0.2 0.9-1.6 10.9-3 22.2-1.4 11.3-2.8 21.6-3.1 23-0.4 2 0 2.7 1.8 3.2 1.3 0.4 10.4 0.8 20.3 0.8 17.4-0.1 18.1 0 20.2 2.2 1.2 1.3 2.5 3.4 2.8 4.8 0.4 1.4 0.4 3.7 0.1 5.3-0.3 1.5-1.8 3.6-3.3 4.6-2.2 1.5-6.4 2.3-18.3 3.5-8.5 0.8-17.5 1.7-20 1.9-2.5 0.3-10.7-0.1-18.4-0.7-13.5-1.1-14-1.2-16.7-4.1-2.3-2.4-2.7-3.6-2.2-6 0.3-1.6 1.2-4 1.9-5.2 0.8-1.3 3.1-2.8 5.1-3.4 2.1-0.6 5-0.9 6.5-0.5 1.7 0.4 3.2 0.1 3.9-0.6q1-1.3 0.4-19.3c-0.4-9.9-1.5-34.6-2.6-55-1-20.3-1.9-40.4-1.9-44.5 0-4.1-0.3-9.6-0.7-12.2-0.8-4.5-1-4.8-4.8-5.7-2.2-0.5-4.9-1.9-6-3.1q-2-2.2-1.8-5.9c0.1-2.6 1-4.4 6.2-9.3l11.3 0.7c6.2 0.4 12.9 0.9 14.8 1.2 1.9 0.2 3.8 0.6 4.2 0.9 0.5 0.2 0.8 2.1 0.8 4.2 0 2 0.2 5.3 0.9 11l7.3-5.5c4-3.1 9.8-6.7 12.8-8 3-1.4 8.2-3.1 11.5-3.8 3.3-0.7 8.9-1.4 12.5-1.4zm-19.5 39.1c-2.8 1.9-6.2 5.1-7.7 6.9-1.4 1.9-3.5 5.4-4.7 7.9-1.1 2.5-2.1 6-2.1 7.8 0 1.7 1.2 5.6 2.6 8.5 1.4 2.8 4.9 7.4 7.8 10 2.8 2.7 7.8 6.2 11.1 7.9 5.6 2.7 6.3 2.8 10.5 1.8 2.5-0.7 6.5-2.2 9-3.5 2.5-1.2 6.6-4.5 9.1-7.1 2.5-2.7 5.3-6.9 6.3-9.4 1.3-3.2 1.6-5.8 1.2-9-0.4-2.5-1.8-6.9-3.1-9.7-1.4-2.9-4.4-7.4-6.8-9.9-2.3-2.5-6.5-5.6-9.2-7-2.8-1.3-6.1-2.4-7.5-2.4-1.4 0.1-4.5 0.9-7 1.8-2.5 1-6.8 3.4-9.5 5.4z"/>
		<path id="Path 2" class="s0" d="m210.5 104.8l-10.9 3.6 0.4 140.6h44v-105.5c7 1.2 11.5 2.7 14.6 4.2 3.1 1.6 5.8 3.1 6 3.5 0.2 0.5 5.8 0.8 12.4 0.8h12v-48c-4.3-1.2-12.9-1.5-22-1.5-10.8 0-17.6 0.4-19.8 1.2-2.9 1.2-3.2 1.1-3.2-0.7 0-1.9-0.6-2-11.2-1.9-10.2 0.1-12.4 0.4-22.3 3.7z"/>
		<path id="Path 3" fill-rule="evenodd" class="s2" d="m654.6 14c0.6 0.8 1.1 2.6 1 4-0.1 2.3-0.6 2.6-6.9 3.3-6 0.6-6.7 0.9-6.7 3 0 1.2 1.3 3.4 3 5 1.6 1.5 3 3.2 3 3.7 0 0.5-6.9 6.5-15.4 13.3-14.2 11.2-15.6 12.6-17 16.9-0.9 2.7-2.2 4.8-2.9 4.8-0.6 0-3.9-0.9-7.2-2-3.3-1.1-6.2-2-6.5-2-0.3 0-1.1 1.4-1.7 3.2-1.2 3.2-1.3 3.2-2.7 1.3-1.4-1.9-2.7-2-67.6-2.5l0.6-4.7c0.3-2.7 1.3-5.6 2.2-6.6 1.6-1.7 1.5-2-2.1-5-2.1-1.8-3.4-3.6-3-4.2 0.5-0.6 1.9-1.5 3.3-2.1 2.3-1.1 2.5-1.5 2.2-7.8-0.2-6.6-0.2-6.6 2.8-7.3 2.3-0.6 3-1.4 3-3 0-1.3-0.8-3.6-1.8-5.3-1.3-2.3-1.4-3.4-0.6-4.7 1-1.6 3-1.8 20-1.7 13.4 0.1 24 0.7 36.4 2.4 14.1 1.8 20.3 2.1 32 1.7 10.9-0.4 16.6-1.1 23-2.9 7.5-2.1 8.6-2.2 9.6-0.8zm-104.2 58.1c0.6-0.1-0.9 1.8-3.2 4.1-2.3 2.4-4.2 5-4.2 5.8 0 0.8 1.3 2.7 2.8 4.3 2.7 2.7 2.7 2.7 0.4 2.7-1.2 0-2.5 0.7-3 1.5-0.4 1 0.1 2.3 1.5 3.8 1.2 1.2 2.3 3.5 2.5 5.2 0.2 2.3 0.9 3.1 2.5 3.2 1.3 0.2 5.4-1.3 9.3-3.2 4.9-2.5 7.6-3.3 9.1-2.8 1.9 0.7 2 1.3 1.4 7.8-0.4 3.8-0.8 7.7-1.1 8.5-0.3 1.3-0.7 1.2-2.2-0.3-1-1.1-2.8-1.7-4.7-1.5-2.4 0.2-3.4 1.1-4.7 4-1.1 2.4-3.6 4.9-6.6 6.8-2.6 1.7-5.7 3-7 3-1.2 0-4.5 1.1-7.2 2.5-2.8 1.4-6.1 2.5-7.5 2.5-1.8 0-2.5-0.5-2.5-2 0-1.1 0.5-3.2 1-4.8 0.9-2.2 0.7-3.2-1-5.5-1.1-1.5-2-3.9-2-5.5 0-1.5 0.5-4.3 1-6.2 0.6-1.9 0.8-4.7 0.5-6.3-0.3-1.8-1.2-2.8-2.6-3-2.1-0.2-2-0.4 1-3.5 2.4-2.5 3.6-3 5.3-2.5 1.3 0.3 3.2 0.7 4.3 0.7 1.6 0.1 2-0.5 2-2.9 0-2.5-0.5-3.2-3.5-4.1-1.9-0.7-4-1.9-4.5-2.7-0.7-1.1-0.5-2.3 1-4.2 1.7-2.3 2.5-2.7 5.1-2.2 1.7 0.3 5.9-0.3 9.5-1.3 3.5-1 6.8-1.9 7.3-1.9zm52 25.8c8.5 1.4 16 3.1 16.6 3.6 0.7 0.7 0.7 1.8 0 3.7-0.5 1.6-1 3.5-1 4.3 0 0.8 0.7 2.2 1.5 3 0.8 0.8 2 1.5 2.5 1.5 0.5 0 2.5-1.3 4.2-3 1.8-1.6 4.1-2.9 5-3 1 0 3.2 1.2 5 2.7 1.7 1.6 4.9 3.3 7.1 3.8 3.6 0.9 4.2 1.5 5.7 6 1 2.7 3.7 10.2 6 16.5 2.7 7.6 3.6 11.1 2.6 10.2-1.4-1-1.8-0.8-2.6 1.3-0.7 1.7-0.7 3.4 0.1 5.2 0.6 1.6 1.8 3.4 2.7 4.1 1 0.7 3.7 2.3 6.2 3.6 2.5 1.3 5.6 3.6 6.8 5.2 2.2 2.7 2.3 2.9 0.5 3.2-1 0.2-2.8 1.4-4.1 2.5-1.7 1.7-2.2 3.3-2.2 6.9 0 4.7 0.1 4.8 3 4.8 1.6 0 3.2 0.3 3.5 0.7 0.2 0.5-3 2.1-7.3 3.7-4.2 1.6-8.3 3.4-9 4-0.8 0.7-1.1 2.2-0.8 3.8 0.5 2.3-0.5 4.2-5.2 10.5-3.1 4.2-6.1 8.4-6.6 9.3-0.5 1-0.1 2.4 1.3 4.2 1.5 2.1 1.8 3.2 1.1 4.3-0.9 1.3-1.5 1.2-5-0.5-3.8-1.9-4.1-1.9-6.4-0.3-1.3 1-3.9 3-5.7 4.4-3 2.3-5 2.8-19.2 4.3-8.6 0.9-16.3 1.4-17 1.1-0.6-0.3-2-1.8-3-3.5-1.4-2.5-1.5-3.4-0.5-5.1 1-1.7 1-2.2 0-2.5-0.6-0.2-1.2-1.2-1.2-2.2 0-0.9 2-3 4.6-4.7 2.6-1.7 5.1-3.8 5.5-4.8 0.5-0.9 0.9-2.9 0.9-4.5 0-1.5 0.8-3.6 1.8-4.7 1.6-1.8 2-5.3 4.3-55l-3-9c-1.7-4.9-4.9-11.8-7.1-15.3-2.2-3.4-4.9-6.8-6-7.5-1.7-1-2-2.4-2.2-9.8-0.1-4.7 0.1-8.8 0.5-9.1 0.3-0.2 7.5 0.7 16.1 2.1zm-8.9 50.4c0.1 0.3-0.5 3.1-1.3 6.3-0.8 3.3-1.7 6.3-2 6.9-0.3 0.6-0.9 0-1.4-1.2-0.6-1.7-0.1-3.6 1.9-7.4 1.5-2.8 2.7-4.9 2.8-4.6zm-51.9 4.7c0.1 0-0.2 1.8-0.5 4-0.6 3.9-0.5 4 2.1 4 1.6 0 3.7-1 4.8-2.3 1.1-1.2 2-2.8 2-3.5 0-0.6 0.5-1 1-0.7 0.5 0.3 2.5 2.9 4.3 5.8 1.9 2.8 4.7 5.9 6.3 6.7 1.6 0.8 4.1 2.9 8.4 8l4-2c3.3-1.7 4-1.8 4-0.5 0 0.8-1.7 2.3-3.8 3.3-3.7 1.8-3.7 1.8-3.6 7.7 0.1 6 0.1 6-16.4 29l2.1 1.8c1.2 0.9 4.4 2.2 7.2 2.8 4.2 1 4.7 1.3 3.3 2.3-1 0.6-1.7 2-1.7 3.1 0 1.1 0.9 2.9 2 4 1.1 1.1 1.9 2.9 1.7 4-0.3 2.1-0.5 2-18.1-1.2-17.3-3.2-17.7-3.4-17.7-5.8 0-1.7-0.9-3-3-4.3-1.8-1-3.8-3.6-5.1-6.7-1.2-2.8-3.6-6.3-5.4-8-2.6-2.4-3.7-4.5-4.9-10-1-4.2-2.8-8.7-4.6-11.3-2.8-3.9-2.9-4.4-1.6-6.9 0.8-1.6 2.2-3.5 3.2-4.4 1.1-0.9 8.2-5.6 15.9-10.3 7.7-4.7 14-8.6 14.1-8.6z"/>
		<path id="Path 4" class="s3" d="m16.7 40.6c0.4 18.8 0.8 25.4 1.9 27.1 0.9 1.6 2.4 2.3 4.4 2.3 2.7 0 3.1-0.4 4.1-4.3 0.7-2.7 2.9-6.2 6.2-9.7l5-5.5c18-1 27.7-1.5 33.1-1.6 6.9-0.3 10-0.8 10.3-1.7 0.2-0.8 2.7-1.2 8-1.2l7.8-0.1c4.2 9 5.9 14.7 6.6 18.6 0.8 4.6 1 11.4 0.5 20-0.3 7.2-1.1 15-1.6 17.5-0.5 2.5-1.2 13-1.5 23.5-0.4 12.6-0.2 19.4 0.5 20.2 0.5 0.7 0.8 1.7 0.5 2.3-0.3 0.6-1 10.8-1.5 22.7-0.6 13.4-1.7 25.3-2.9 30.8-1 4.9-2.5 10.6-3.4 12.5-0.9 1.9-2.9 4.7-4.4 6.1-2.3 2.1-4.2 2.8-9.8 3.3-3.8 0.4-7.8 0.8-8.8 0.9-1.4 0.2-1.7 1.3-1.7 7.4v7.3c7-3.1 11.1-4.9 13.8-6 4.1-1.7 4.8-1.8 5.7-0.6 0.5 0.9 2.2 2 3.8 2.6 1.5 0.5 5.5 1 9 1 3.5 0 6.7-0.5 7.3-1 0.6-0.7 2.9-0.2 6.9 1.6 5 2.2 6.4 2.4 8.5 1.5 1.6-0.8 7.2-1 15.5-0.8 7.2 0.2 13.6 0.7 14.3 1.1 0.8 0.4 1.2-0.4 1.2-2.9 0-2.7-0.6-3.9-2.8-5.4-1.5-1.1-6.3-3.3-10.7-5.1-4.4-1.7-8.8-4.1-9.8-5.3-1-1.2-3-6-4.4-10.7-1.4-4.7-3-9.1-3.6-9.8-0.9-1.1-0.9-2.8 0-7 0.7-3.2 1.7-14.9 2.3-26.2 0.6-11.3 1.8-24.9 2.6-30.3 1.2-8.3 1.2-10.1 0-12.5-1.1-2.2-1.2-5.4-0.5-16.7 0.4-7.7 1.3-22.8 1.9-33.5 0.5-10.7 1.4-20.6 1.8-21.9 0.4-1.3 1.7-2.8 2.9-3.2 1.3-0.5 7-0.9 12.8-0.9 6 0 10.7 0.4 11 1 0.3 0.5 2.9 1 5.8 1 2.9 0 5.7-0.5 6.3-1 0.5-0.6 5.6-0.9 12.3-0.8l11.5 0.3c9.9 18.5 11.8 21.1 13.4 21.2 1.2 0.2 2.5-0.3 2.8-1 0.3-0.6-0.2-11-1-23-0.9-11.9-1.8-22.2-2.1-22.7-0.3-0.6-2-1.3-3.8-1.6-2.4-0.5-4.3-0.1-7.7 1.9-2.5 1.3-5.4 3.5-6.5 4.6-1.8 2-3 2.2-12.8 2.1-6.2 0-10.9 0.4-11.2 1-0.3 0.6-5.2 1-11.5 1-6.1 0-11.2-0.3-11.4-0.8-0.2-0.4-10.7-1.1-23.3-1.6-12.5-0.5-29.6-0.7-37.8-0.5-8.3 0.2-20 0.4-26 0.3-6.1 0-13.5-0.6-16.5-1.3-3-0.6-7.5-2.2-10-3.4-2.5-1.2-6.6-3.5-9.2-5.1l-4.7-2.9z"/>
		<path id="Path 5" class="s4" d="m322.7 106.2c-1.8 1.8-3.5 4.2-3.8 5.3-0.3 1.1-0.2 3 0.2 4.2 0.5 1.3 2.4 3.2 4.2 4.3 1.7 1.1 3.8 2 4.5 2 0.6 0 2.8-1.2 4.7-2.8 2.7-2 3.6-3.4 3.6-5.7-0.1-1.8-1.2-4.3-2.8-6.2-1.6-1.7-3.8-3.4-5-3.8-1.8-0.5-3 0.1-5.6 2.7zm-7 35.7c-3.1 2.9-4.9 5.8-6.9 11.3-1.5 4-3 9.1-3.4 11.3-0.4 2.2-1.3 5.5-2.1 7.2-0.7 1.8-1.3 4.6-1.3 6.3 0 1.9-1.2 4.5-3.5 7.2-1.9 2.4-5.2 6.8-7.3 9.8-2.2 3-5.2 8-6.7 11-1.5 3-3.2 5.7-3.7 6-0.5 0.3-1.1 3.2-1.4 6.5-0.5 5.2-0.2 6.7 2.3 11.5 2.5 4.8 3.6 5.9 9.3 8.7 3.6 1.8 7.1 3.3 7.8 3.3 0.6 0 3.5-2.1 6.3-4.8 2.9-2.6 7.5-5.6 10.3-6.7 4.1-1.6 5.2-2.6 6.1-5.3 0.8-2.4 0.7-3.5-0.3-4.5-1.1-1-1.7-0.8-3 0.9-0.9 1.1-2.7 2.6-3.9 3.2-1.3 0.7-4.1 1.2-6.3 1.2-2.9 0-4.7-0.7-6.5-2.5-1.4-1.4-2.5-3.1-2.5-3.8 0-0.6 1.8-6.4 4-12.7 2.1-6.3 5.9-15.1 8.4-19.5 2.5-4.4 5.9-11.5 7.6-15.8 1.6-4.2 3-8.6 3-9.7 0-1.1 1.8-4.4 4.1-7.3 3.1-4.1 3.9-5.7 3.4-7.7-0.4-1.4-1.7-4-3.1-5.8-1.3-1.7-3.3-3.2-4.4-3.2-1.1 0-3.9 1.8-6.3 3.9z"/>
		<path id="Path 6" fill-rule="evenodd" class="s0" d="m437.5 137.7c3.8 0.3 8.3 1.5 12.3 3.4 4.1 1.9 7.4 4.3 9.6 7.2 1.8 2.3 4.4 6.2 5.6 8.7 1.2 2.5 2.4 5.6 2.5 7 0.2 1.4 0.4 2.5 0.5 2.5 0.1 0 0.4 4.3 0.6 9.5 0.2 5.2 0.5 10.2 0.5 11 0.1 0.8-0.1 3.3-0.5 5.5-0.3 2.2-1.6 6-2.9 8.4-1.2 2.4-4.2 6.2-6.7 8.4-2.5 2.3-6.3 4.9-8.5 5.9-2.2 0.9-6.5 2.2-9.5 2.8-3 0.6-9.6 1.1-14.5 1.1-8.4 0.1-9.5-0.1-16-3.5-4-2-9.6-6-12.9-9.3-3.3-3.2-6.8-7.8-7.9-10.3-1.4-3.1-2.2-7.4-2.5-13.5-0.2-4.9 0.1-11.5 0.7-14.5 0.6-3 2.4-7.5 4-10 1.7-2.5 5-6.5 7.3-8.9 2.4-2.3 7-5.7 10.3-7.4 4.4-2.2 8.1-3.2 14-3.7 4.4-0.4 10.7-0.6 14-0.3zm-24 18.5c-2.7 1.9-6.2 5.1-7.7 6.9-1.4 1.9-3.5 5.4-4.7 7.9-1.1 2.5-2.1 6-2.1 7.8 0 1.7 1.2 5.6 2.6 8.5 1.4 2.8 4.9 7.4 7.8 10 2.8 2.7 7.8 6.2 11.1 7.9 5.6 2.7 6.3 2.8 10.5 1.8 2.5-0.7 6.5-2.2 9-3.5 2.5-1.2 6.6-4.5 9.1-7.1 2.5-2.7 5.3-6.9 6.3-9.4 1.3-3.2 1.6-5.8 1.2-9-0.4-2.5-1.8-6.9-3.1-9.7-1.4-2.9-4.4-7.4-6.7-9.9-2.4-2.5-6.5-5.6-9.3-7-2.7-1.3-6.1-2.4-7.5-2.4-1.4 0.1-4.5 0.9-7 1.8-2.5 1-6.7 3.4-9.5 5.4z"/>
		<path id="Path 7" class="s5" d="m222.2 115.9l-11.2 3.6v118.5h23c0-98.3 0.2-105.1 1.5-105.5 0.8-0.3 5.9-0.5 11.3-0.5 5.3 0 12 0.6 14.7 1.4 2.8 0.7 7.4 2.5 10.3 3.9 2.8 1.5 5.4 3.1 5.7 3.7 0.3 0.6 0.9 1 1.5 1 0.6 0 1-4.8 1-12.5 0-9.8-0.3-12.8-1.5-14-0.8-0.8-3.6-1.8-6.2-2.1-3-0.4-7.2 0-11.3 1.1-3.6 0.9-8.1 2.6-10 3.7-1.9 1.2-6.2 4.1-9.5 6.4-3.3 2.4-6.3 4.3-6.7 4.4-0.5 0-0.9-3.8-1.1-8.3l-0.3-8.4z"/>
	</g>
</svg>